<svg width="58" height="13" viewBox="0 0 58 13" fill="none" xmlns="http://www.w3.org/2000/svg">
<path d="M5.80901 6.26439C6.22281 6.32973 6.5985 6.49852 6.93608 6.77076C7.28454 7.043 7.55678 7.38057 7.75279 7.78349C7.9597 8.1864 8.06315 8.61654 8.06315 9.0739C8.06315 9.65104 7.91614 10.1737 7.62212 10.642C7.3281 11.0994 6.89797 11.4642 6.33171 11.7364C5.77634 11.9977 5.11752 12.1284 4.35525 12.1284H0.108329V0.743391H4.19191C4.96507 0.743391 5.62389 0.874066 6.16836 1.13541C6.71284 1.38587 7.1212 1.7289 7.39344 2.16448C7.66568 2.60006 7.8018 3.09009 7.8018 3.63457C7.8018 4.30972 7.61668 4.87053 7.24643 5.317C6.88708 5.75259 6.40794 6.06838 5.80901 6.26439ZM1.59475 5.66002H4.09391C4.79084 5.66002 5.32987 5.49668 5.711 5.16999C6.09214 4.84331 6.28271 4.39139 6.28271 3.81425C6.28271 3.2371 6.09214 2.78518 5.711 2.4585C5.32987 2.13181 4.77995 1.96847 4.06124 1.96847H1.59475V5.66002ZM4.22458 10.9033C4.96507 10.9033 5.54222 10.7291 5.95602 10.3806C6.36982 10.0322 6.57672 9.54759 6.57672 8.92689C6.57672 8.2953 6.35893 7.79982 5.92335 7.44047C5.48777 7.07022 4.90518 6.8851 4.17558 6.8851H1.59475V10.9033H4.22458ZM11.6123 4.63096C11.8736 4.11915 12.2439 3.72168 12.723 3.43856C13.2131 3.15543 13.8065 3.01386 14.5035 3.01386V4.54929H14.1114C12.4453 4.54929 11.6123 5.45312 11.6123 7.26079V12.1284H10.1259V3.17721H11.6123V4.63096ZM15.664 7.62014C15.664 6.70542 15.8491 5.90504 16.2193 5.219C16.5896 4.52207 17.0959 3.98303 17.7384 3.6019C18.3918 3.22076 19.116 3.0302 19.9109 3.0302C20.6949 3.0302 21.3755 3.19898 21.9527 3.53656C22.5298 3.87414 22.96 4.29883 23.2431 4.81064V3.17721H24.7459V12.1284H23.2431V10.4623C22.9491 10.985 22.5081 11.4206 21.92 11.7691C21.3429 12.1066 20.6677 12.2754 19.8946 12.2754C19.0996 12.2754 18.3809 12.0794 17.7384 11.6874C17.0959 11.2954 16.5896 10.7454 16.2193 10.0376C15.8491 9.3298 15.664 8.52398 15.664 7.62014ZM23.2431 7.63648C23.2431 6.96133 23.107 6.37329 22.8347 5.87237C22.5625 5.37145 22.1923 4.99032 21.724 4.72897C21.2666 4.45673 20.7603 4.32061 20.2049 4.32061C19.6495 4.32061 19.1432 4.45128 18.6858 4.71263C18.2285 4.97398 17.8637 5.35512 17.5914 5.85604C17.3192 6.35696 17.1831 6.94499 17.1831 7.62014C17.1831 8.30619 17.3192 8.90511 17.5914 9.41692C17.8637 9.91784 18.2285 10.3044 18.6858 10.5767C19.1432 10.838 19.6495 10.9687 20.2049 10.9687C20.7603 10.9687 21.2666 10.838 21.724 10.5767C22.1923 10.3044 22.5625 9.91784 22.8347 9.41692C23.107 8.90511 23.2431 8.31163 23.2431 7.63648Z" fill="#F97239"/>
<path d="M36.6663 0.743391L32.3704 12.1284H30.6553L26.3594 0.743391H27.9438L31.521 10.5603L35.0982 0.743391H36.6663ZM37.7408 7.62014C37.7408 6.70542 37.926 5.90504 38.2962 5.219C38.6664 4.52207 39.1728 3.98303 39.8153 3.6019C40.4687 3.22076 41.1928 3.0302 41.9878 3.0302C42.7718 3.0302 43.4524 3.19898 44.0295 3.53656C44.6067 3.87414 45.0368 4.29883 45.32 4.81064V3.17721H46.8227V12.1284H45.32V10.4623C45.0259 10.985 44.5849 11.4206 43.9969 11.7691C43.4197 12.1066 42.7446 12.2754 41.9714 12.2754C41.1765 12.2754 40.4578 12.0794 39.8153 11.6874C39.1728 11.2954 38.6664 10.7454 38.2962 10.0376C37.926 9.3298 37.7408 8.52398 37.7408 7.62014ZM45.32 7.63648C45.32 6.96133 45.1838 6.37329 44.9116 5.87237C44.6394 5.37145 44.2691 4.99032 43.8009 4.72897C43.3435 4.45673 42.8371 4.32061 42.2818 4.32061C41.7264 4.32061 41.22 4.45128 40.7627 4.71263C40.3053 4.97398 39.9405 5.35512 39.6683 5.85604C39.396 6.35696 39.2599 6.94499 39.2599 7.62014C39.2599 8.30619 39.396 8.90511 39.6683 9.41692C39.9405 9.91784 40.3053 10.3044 40.7627 10.5767C41.22 10.838 41.7264 10.9687 42.2818 10.9687C42.8371 10.9687 43.3435 10.838 43.8009 10.5767C44.2691 10.3044 44.6394 9.91784 44.9116 9.41692C45.1838 8.90511 45.32 8.31163 45.32 7.63648ZM48.7793 7.62014C48.7793 6.70542 48.9644 5.90504 49.3346 5.219C49.7049 4.52207 50.2112 3.98303 50.8537 3.6019C51.5071 3.22076 52.2313 3.0302 53.0262 3.0302C53.8102 3.0302 54.4908 3.19898 55.068 3.53656C55.6451 3.87414 56.0753 4.29883 56.3584 4.81064V3.17721H57.8612V12.1284H56.3584V10.4623C56.0644 10.985 55.6233 11.4206 55.0353 11.7691C54.4582 12.1066 53.783 12.2754 53.0099 12.2754C52.2149 12.2754 51.4962 12.0794 50.8537 11.6874C50.2112 11.2954 49.7049 10.7454 49.3346 10.0376C48.9644 9.3298 48.7793 8.52398 48.7793 7.62014ZM56.3584 7.63648C56.3584 6.96133 56.2223 6.37329 55.95 5.87237C55.6778 5.37145 55.3076 4.99032 54.8393 4.72897C54.3819 4.45673 53.8756 4.32061 53.3202 4.32061C52.7648 4.32061 52.2585 4.45128 51.8011 4.71263C51.3438 4.97398 50.979 5.35512 50.7067 5.85604C50.4345 6.35696 50.2984 6.94499 50.2984 7.62014C50.2984 8.30619 50.4345 8.90511 50.7067 9.41692C50.979 9.91784 51.3438 10.3044 51.8011 10.5767C52.2585 10.838 52.7648 10.9687 53.3202 10.9687C53.8756 10.9687 54.3819 10.838 54.8393 10.5767C55.3076 10.3044 55.6778 9.91784 55.95 9.41692C56.2223 8.90511 56.3584 8.31163 56.3584 7.63648Z" fill="white"/>
</svg>
